<?xml version="1.0" encoding="UTF-8" standalone="no"?>
<!-- Generator: Adobe Illustrator 19.0.0, SVG Export Plug-In . SVG Version: 6.00 Build 0)  -->

<svg
   xmlns:dc="http://purl.org/dc/elements/1.1/"
   xmlns:cc="http://creativecommons.org/ns#"
   xmlns:rdf="http://www.w3.org/1999/02/22-rdf-syntax-ns#"
   xmlns:svg="http://www.w3.org/2000/svg"
   xmlns="http://www.w3.org/2000/svg"
   xmlns:sodipodi="http://sodipodi.sourceforge.net/DTD/sodipodi-0.dtd"
   xmlns:inkscape="http://www.inkscape.org/namespaces/inkscape"
   version="1.1"
   id="Capa_1"
   x="0px"
   y="0px"
   viewBox="0 0 58 58"
   style="enable-background:new 0 0 58 58;;opacity:1"
   xml:space="preserve"
   sodipodi:docname="aquarius-2.svg"
   inkscape:version="0.92.1 r15371"><sodipodi:namedview
     pagecolor="#ffffff"
     bordercolor="#666666"
     borderopacity="1"
     objecttolerance="10"
     gridtolerance="10"
     guidetolerance="10"
     inkscape:pageopacity="0"
     inkscape:pageshadow="2"
     inkscape:window-width="1278"
     inkscape:window-height="779"
     id="namedview136"
     showgrid="false"
     inkscape:zoom="9.9827586"
     inkscape:cx="24.993092"
     inkscape:cy="32.980437"
     inkscape:window-x="0"
     inkscape:window-y="19"
     inkscape:window-maximized="0"
     inkscape:current-layer="g101" /><metadata
     id="metadata140"><rdf:RDF><cc:Work
         rdf:about=""><dc:format>image/svg+xml</dc:format><dc:type
           rdf:resource="http://purl.org/dc/dcmitype/StillImage" /><dc:title></dc:title></cc:Work></rdf:RDF></metadata><defs
     id="defs138" /><g
     id="g103"
     style="fill:#d3d3d3;opacity:1;fill-opacity:1"><g
       id="g101"
       style="fill:#d3d3d3;opacity:1;fill-opacity:1"><path
         d="M29,0C13.009,0,0,13.01,0,29s13.009,29,29,29s29-13.01,29-29S44.991,0,29,0z M29,56C14.112,56,2,43.888,2,29    S14.112,2,29,2s27,12.112,27,27S43.888,56,29,56z"
         id="path95"
         style="fill:#d3d3d3;opacity:0.463;fill-opacity:1;stroke:#000000;stroke-opacity:1;stroke-width:0.2;stroke-miterlimit:4;stroke-dasharray:none" /><path
         d="M9,27c0.256,0,0.512-0.098,0.707-0.293l6.731-6.731c0.311-0.308,0.814-0.308,1.123,0l5.463,5.463    c1.09,1.09,2.862,1.09,3.951,0l5.463-5.463c0.31-0.308,0.814-0.308,1.123,0l5.463,5.463c1.09,1.09,2.862,1.09,3.951,0l6.731-6.731    c0.391-0.391,0.391-1.023,0-1.414s-1.023-0.391-1.414,0l-6.731,6.731c-0.31,0.31-0.813,0.309-1.123,0l-5.463-5.463    c-1.09-1.09-2.862-1.09-3.951,0l-5.463,5.463c-0.31,0.31-0.813,0.309-1.123,0l-5.463-5.463c-1.09-1.09-2.862-1.09-3.951,0    l-6.731,6.731c-0.391,0.391-0.391,1.023,0,1.414C8.488,26.902,8.744,27,9,27z"
         id="path97"
         style="fill:#d3d3d3;opacity:0.463;fill-opacity:1;stroke:#000000;stroke-opacity:1;stroke-width:0.2;stroke-miterlimit:4;stroke-dasharray:none" /><path
         d="M48.293,29.293l-6.731,6.731c-0.31,0.31-0.813,0.31-1.123,0l-5.463-5.463c-1.09-1.09-2.862-1.09-3.951,0l-5.463,5.463    c-0.31,0.31-0.813,0.31-1.123,0l-5.463-5.463c-1.09-1.09-2.862-1.09-3.951,0l-6.731,6.731c-0.391,0.391-0.391,1.023,0,1.414    C8.488,38.902,8.744,39,9,39s0.512-0.098,0.707-0.293l6.731-6.731c0.311-0.309,0.814-0.308,1.123,0l5.463,5.463    c1.09,1.09,2.862,1.09,3.951,0l5.463-5.463c0.31-0.309,0.814-0.308,1.123,0l5.463,5.463c1.09,1.09,2.862,1.09,3.951,0l6.731-6.731    c0.391-0.391,0.391-1.023,0-1.414S48.684,28.902,48.293,29.293z"
         id="path99"
         style="fill:#d3d3d3;opacity:0.463;fill-opacity:1;stroke:#000000;stroke-opacity:1;stroke-width:0.2;stroke-miterlimit:4;stroke-dasharray:none" /></g></g><g
     id="g105" /><g
     id="g107" /><g
     id="g109" /><g
     id="g111" /><g
     id="g113" /><g
     id="g115" /><g
     id="g117" /><g
     id="g119" /><g
     id="g121" /><g
     id="g123" /><g
     id="g125" /><g
     id="g127" /><g
     id="g129" /><g
     id="g131" /><g
     id="g133" /></svg>